# xmcd CD database file
#
# Track frame offsets:
#	150
#	16680
#	35957
#	54250
#	73162
#	96162
#	120957
#	141640
#	160555
#	179030
#	200635
#	221277
#
# Disc length: 3193 seconds
#
# Revision: 4
# Processed by: cddbd v1.5.2PL0 Copyright (c) Steve Scherf et al.
# Submitted via: CDex 2.20
#
DISCID=ac0c770c
DTITLE=Jeanne Mas - Jeanne Mas
DYEAR=1993
DGENRE=Chanson
TTITLE0=Aime-moi
TTITLE1=Vivre libres
TTITLE2=Mis a part
TTITLE3=Les yeux androgynes
TTITLE4=Ces hommes
TTITLE5=Au nom des Rois
TTITLE6=Sens de toi
TTITLE7=Dors bien Margot
TTITLE8=La Terre
TTITLE9=Au secours
TTITLE10=Sure de lui
TTITLE11=A cause de vous
EXTD=YEAR: 1993
EXTT0=
EXTT1=
EXTT2=
EXTT3=
EXTT4=
EXTT5=
EXTT6=
EXTT7=
EXTT8=
EXTT9=
EXTT10=
EXTT11=
PLAYORDER=
